<?xml version="1.0" encoding="UTF-8"?>
<svg version="1.1" xmlns="http://www.w3.org/2000/svg" width="256" height="256">
<path d="M0 0 C5.72283509 0.54180687 10.20138479 2.88616329 15.3359375 5.375 C16.44412842 5.90174316 17.55231934 6.42848633 18.6940918 6.97119141 C21.12607307 8.13026476 23.55484862 9.29463869 25.98095703 10.46582031 C29.49724354 12.15922606 33.03003888 13.8154847 36.56707764 15.46502686 C39.57069579 16.86861473 42.56772849 18.28588725 45.5635376 19.70605469 C47.02782807 20.39777795 48.49424675 21.08501524 49.96282959 21.76757812 C52.03826449 22.73454144 54.10373651 23.72032803 56.16796875 24.7109375 C57.95424683 25.55470947 57.95424683 25.55470947 59.77661133 26.41552734 C63.93911173 28.97691876 66.74572561 31.94457622 68.9609375 36.375 C69.06494701 38.77949901 69.10873655 41.15544023 69.10810852 43.56048584 C69.11178521 44.30933493 69.1154619 45.05818402 69.11925 45.8297255 C69.13030966 48.35231082 69.13413453 50.87485498 69.13793945 53.39746094 C69.14420239 55.200807 69.15084904 57.00415177 69.15785217 58.80749512 C69.17527791 63.7167094 69.18581828 68.62591392 69.1940577 73.53515148 C69.19920465 76.60097359 69.20528052 79.66679265 69.21156883 82.73261261 C69.23062551 92.32103787 69.24485549 101.9094554 69.2531808 111.49789596 C69.26295523 122.57312537 69.28927816 133.64815503 69.32968169 144.72331405 C69.35982402 153.27879309 69.3746479 161.83421483 69.37796181 170.38974595 C69.3803145 175.50182081 69.3893033 180.61368239 69.41442299 185.72570038 C69.43767568 190.53559612 69.44194823 195.34513773 69.43166161 200.15507507 C69.43116545 201.9199313 69.43750942 203.68480479 69.45121765 205.44960785 C69.46889706 207.8606903 69.46185074 210.27049643 69.44868469 212.68157959 C69.46513856 213.72721939 69.46513856 213.72721939 69.48192483 214.79398322 C69.41666369 219.75010241 68.02250097 222.53533316 64.9609375 226.375 C63.11254883 227.90774536 63.11254883 227.90774536 61.23046875 228.98876953 C60.53260254 229.39291077 59.83473633 229.797052 59.11572266 230.21343994 C55.66266045 232.07485017 52.18226963 233.85157674 48.6484375 235.5546875 C47.8764502 235.93053986 47.10446289 236.30639221 46.30908203 236.69363403 C44.68317745 237.48395197 43.05620742 238.27208144 41.42822266 239.05810547 C38.99229851 240.23485014 36.5603815 241.41956367 34.12890625 242.60546875 C29.42142818 244.89449731 24.69645097 247.14461736 19.9609375 249.375 C19.2090918 249.73146606 18.45724609 250.08793213 17.68261719 250.4552002 C15.53224861 251.46763008 13.37372341 252.45973555 11.2109375 253.4453125 C10.57978027 253.74404266 9.94862305 254.04277283 9.29833984 254.35055542 C4.40549562 256.53674602 0.0196617 257.25313418 -5.19140625 255.75708008 C-10.59948609 252.95467109 -14.71650301 249.32174075 -19.0390625 245.0625 C-20.37109513 243.77339421 -21.70442728 242.48562984 -23.0390625 241.19921875 C-24.02471191 240.24619873 -24.02471191 240.24619873 -25.03027344 239.27392578 C-27.68153225 236.76766775 -30.42372066 234.37712071 -33.18164062 231.98950195 C-35.76148337 229.74705978 -38.2745729 227.44060342 -40.7890625 225.125 C-41.82290837 224.17447014 -42.85676279 223.22394958 -43.890625 222.2734375 C-44.41043945 221.79487305 -44.93025391 221.31630859 -45.46582031 220.82324219 C-48.02968843 218.46308302 -50.59628245 216.10590198 -53.1640625 213.75 C-53.66462158 213.29069092 -54.16518066 212.83138184 -54.6809082 212.3581543 C-57.76356062 209.53327063 -60.8634461 206.7287433 -63.9765625 203.9375 C-68.4311616 199.94051622 -72.82824729 195.88425591 -77.22021484 191.81884766 C-81.28113384 188.063962 -85.38025391 184.3543888 -89.5 180.6640625 C-92.42731139 178.02497869 -95.32709653 175.35707813 -98.2265625 172.6875 C-102.42392722 168.82563098 -106.67345618 165.04607804 -111.0390625 161.375 C-114.49253268 162.62784328 -117.17229638 164.03073055 -120.04296875 166.31640625 C-120.77765381 166.89567871 -121.51233887 167.47495117 -122.26928711 168.07177734 C-123.42376343 168.99531006 -123.42376343 168.99531006 -124.6015625 169.9375 C-126.21815475 171.21299438 -127.835343 172.48773373 -129.453125 173.76171875 C-130.23848633 174.38224121 -131.02384766 175.00276367 -131.83300781 175.64208984 C-135.60598003 178.60585222 -139.43941541 181.48291337 -143.296875 184.3359375 C-145.20529684 185.75502041 -147.0947404 187.19983634 -148.96875 188.6640625 C-158.16926279 195.72028234 -158.16926279 195.72028234 -164.0390625 195.375 C-168.83678513 193.3748414 -172.38093729 190.55259697 -176.1015625 187 C-176.60494141 186.53078125 -177.10832031 186.0615625 -177.62695312 185.578125 C-178.62514235 184.64321038 -179.61668387 183.70114183 -180.60107422 182.75170898 C-181.99657399 181.41567788 -183.4295504 180.11913749 -184.86328125 178.82421875 C-187.23772024 176.1513763 -187.7663382 175.07908537 -187.7890625 171.5625 C-187.39195679 165.27345379 -184.51970484 162.51577938 -180.0390625 158.375 C-178.86371239 157.25481938 -177.68931562 156.13363802 -176.515625 155.01171875 C-170.75260775 149.54265112 -164.91127355 144.15784036 -158.890625 138.97265625 C-155.23451312 135.81790993 -151.64411022 132.58783188 -148.0390625 129.375 C-149.51853109 125.83060466 -151.46146977 123.87249421 -154.3515625 121.375 C-158.46887978 117.76269277 -162.52631554 114.10222004 -166.5390625 110.375 C-171.2721244 105.9834921 -176.05899956 101.66277853 -180.91796875 97.41015625 C-186.7026529 91.85984236 -186.7026529 91.85984236 -187.60546875 87.875 C-187.59488988 81.10452344 -187.59488988 81.10452344 -185.0390625 77.75 C-183.5540625 76.574375 -183.5540625 76.574375 -182.0390625 75.375 C-180.73733548 74.05148675 -179.44644742 72.71726282 -178.1640625 71.375 C-168.08844813 61.375 -168.08844813 61.375 -160.0390625 61.375 C-154.62108969 63.59073165 -150.37596613 67.06390285 -145.8515625 70.6875 C-137.03212972 77.6549071 -128.03192405 84.34897911 -118.95166016 90.97143555 C-116.97023966 92.42550581 -115.00279197 93.89715018 -113.0390625 95.375 C-109.67457796 93.89493197 -107.29902605 91.98366795 -104.6015625 89.5 C-103.72628906 88.69820313 -102.85101563 87.89640625 -101.94921875 87.0703125 C-100.98886719 86.18085937 -100.02851562 85.29140625 -99.0390625 84.375 C-97.97543631 83.39303861 -96.91162884 82.41127354 -95.84765625 81.4296875 C-94.18421811 79.89437705 -92.5212795 78.35854336 -90.85986328 76.82104492 C-86.79195862 73.05874145 -82.6841724 69.34355572 -78.55859375 65.64453125 C-73.68696005 61.25628446 -68.86693926 56.81126191 -64.0390625 52.375 C-52.76245404 42.01309743 -52.76245404 42.01309743 -47.1015625 36.9375 C-43.21534977 33.45051297 -39.37091521 29.92138357 -35.5390625 26.375 C-28.01701863 19.4220797 -20.46381104 12.5170754 -12.6640625 5.875 C-11.68695313 5.0396875 -10.70984375 4.204375 -9.703125 3.34375 C-6.21632283 0.76699297 -4.22205324 0.52097315 0 0 Z M-1.0546875 75.3046875 C-1.88669678 75.92980225 -2.71870605 76.55491699 -3.57592773 77.19897461 C-4.47126221 77.87581299 -5.36659668 78.55265137 -6.2890625 79.25 C-7.66396851 80.2855603 -7.66396851 80.2855603 -9.06665039 81.34204102 C-14.90891425 85.74829812 -20.72468251 90.18669039 -26.515625 94.66015625 C-37.67039498 103.26952026 -48.89667794 111.78865904 -60.1640625 120.25 C-60.82059814 120.7435498 -61.47713379 121.23709961 -62.15356445 121.74560547 C-64.74608449 123.68783478 -67.34298774 125.57761683 -70.0390625 127.375 C-70.0390625 128.035 -70.0390625 128.695 -70.0390625 129.375 C-68.04766008 131.10768762 -68.04766008 131.10768762 -65.3515625 133 C-64.2477887 133.80735217 -63.14500327 134.61605657 -62.04296875 135.42578125 C-61.41535645 135.88549316 -60.78774414 136.34520508 -60.14111328 136.81884766 C-55.98754376 139.89374337 -51.89400994 143.04818306 -47.7890625 146.1875 C-40.93839941 151.41609935 -34.07095103 156.62008422 -27.1640625 161.77416992 C-23.26331048 164.69031901 -19.38677045 167.63597188 -15.5234375 170.6015625 C-14.57339844 171.32988281 -13.62335938 172.05820313 -12.64453125 172.80859375 C-10.77514779 174.24323687 -8.90787368 175.68063375 -7.04296875 177.12109375 C-6.19089844 177.77464844 -5.33882813 178.42820312 -4.4609375 179.1015625 C-3.70393555 179.68502441 -2.94693359 180.26848633 -2.16699219 180.86962891 C0.18085899 182.61118192 0.18085899 182.61118192 3.9609375 184.375 C3.9609375 147.415 3.9609375 110.455 3.9609375 72.375 C2.02897178 72.375 0.41696193 74.19636536 -1.0546875 75.3046875 Z " fill="hsl({{HUE}},100%,33%)" transform="translate(187.0390625,-0.375)"/>
<path d="M0 0 C1.10819092 0.52674316 2.21638184 1.05348633 3.3581543 1.59619141 C5.79013557 2.75526476 8.21891112 3.91963869 10.64501953 5.09082031 C14.16130604 6.78422606 17.69410138 8.4404847 21.23114014 10.09002686 C24.23475829 11.49361473 27.23179099 12.91088725 30.2276001 14.33105469 C31.69189057 15.02277795 33.15830925 15.71001524 34.62689209 16.39257812 C36.70232699 17.35954144 38.76779901 18.34532803 40.83203125 19.3359375 C42.0228833 19.89845215 43.21373535 20.4609668 44.44067383 21.04052734 C48.60317423 23.60191876 51.40978811 26.56957622 53.625 31 C53.72900951 33.40449901 53.77279905 35.78044023 53.77217102 38.18548584 C53.77584771 38.93433493 53.7795244 39.68318402 53.7833125 40.4547255 C53.79437216 42.97731082 53.79819703 45.49985498 53.80200195 48.02246094 C53.80826489 49.825807 53.81491154 51.62915177 53.82191467 53.43249512 C53.83934041 58.3417094 53.84988078 63.25091392 53.8581202 68.16015148 C53.86326715 71.22597359 53.86934302 74.29179265 53.87563133 77.35761261 C53.89468801 86.94603787 53.90891799 96.5344554 53.9172433 106.12289596 C53.92701773 117.19812537 53.95334066 128.27315503 53.99374419 139.34831405 C54.02388652 147.90379309 54.0387104 156.45921483 54.04202431 165.01474595 C54.044377 170.12682081 54.0533658 175.23868239 54.07848549 180.35070038 C54.10173818 185.16059612 54.10601073 189.97013773 54.09572411 194.78007507 C54.09522795 196.5449313 54.10157192 198.30980479 54.11528015 200.07460785 C54.13295956 202.4856903 54.12591324 204.89549643 54.11274719 207.30657959 C54.12371644 208.00367279 54.13468568 208.70076599 54.14598733 209.41898322 C54.08072619 214.37510241 52.68656347 217.16033316 49.625 221 C47.77661133 222.53274536 47.77661133 222.53274536 45.89453125 223.61376953 C45.19666504 224.01791077 44.49879883 224.422052 43.77978516 224.83843994 C40.32672295 226.69985017 36.84633213 228.47657674 33.3125 230.1796875 C32.5405127 230.55553986 31.76852539 230.93139221 30.97314453 231.31863403 C29.34723995 232.10895197 27.72026992 232.89708144 26.09228516 233.68310547 C23.65636101 234.85985014 21.224444 236.04456367 18.79296875 237.23046875 C14.08549068 239.51949731 9.36051347 241.76961736 4.625 244 C3.8731543 244.35646606 3.12130859 244.71293213 2.34667969 245.0802002 C0.19631111 246.09263008 -1.96221409 247.08473555 -4.125 248.0703125 C-4.75615723 248.36904266 -5.38731445 248.66777283 -6.03759766 248.97555542 C-10.29465838 250.87766914 -13.74053104 251.27851376 -18.375 251 C-17.13948756 247.29346269 -15.40834922 246.35084565 -12.375 244 C-10.65761982 240.56523964 -11.23484791 236.61353954 -11.24128723 232.83366394 C-11.23902167 231.87176456 -11.23675612 230.90986519 -11.23442191 229.91881734 C-11.22805988 226.67527704 -11.22891268 223.43177829 -11.22973633 220.18823242 C-11.22674618 217.87095587 -11.22334399 215.55367981 -11.21955872 213.23640442 C-11.21069917 206.92646835 -11.20837977 200.61654583 -11.20774293 194.30660415 C-11.2067953 189.04553372 -11.20311865 183.78446647 -11.19957083 178.52339727 C-11.19188476 166.82307949 -11.18890288 155.12276834 -11.18957619 143.42244824 C-11.18961614 142.71996171 -11.1896561 142.01747518 -11.18969727 141.29370117 C-11.18973815 140.59035864 -11.18977903 139.88701611 -11.18982115 139.16236017 C-11.19022754 127.7653648 -11.18066071 116.36840248 -11.1665589 104.97141667 C-11.15220008 93.27456798 -11.14547167 81.57773692 -11.14615268 69.88087922 C-11.14640806 63.31182364 -11.14353492 56.74280543 -11.13297462 50.17375755 C-11.12331474 43.99571223 -11.12319997 37.81774017 -11.13049126 31.63969231 C-11.13153977 29.36969649 -11.12915848 27.09969616 -11.1231308 24.8297081 C-11.11544551 21.73548076 -11.12003279 18.64150859 -11.12776184 15.54728699 C-11.12261828 14.64495164 -11.11747471 13.74261629 -11.11217529 12.81293744 C-11.13623473 8.46643813 -11.21617151 4.90345749 -13.375 1 C-16.36150031 -1.18244253 -18.54263012 -1.1518191 -22.125 -0.625 C-23.32382813 -0.45871094 -23.32382813 -0.45871094 -24.546875 -0.2890625 C-25.15015625 -0.19367187 -25.7534375 -0.09828125 -26.375 0 C-18.37327806 -8.8590493 -9.31481392 -4.51510622 0 0 Z " fill="hsl({{HUE}},98%,43%)" transform="translate(202.375,5)"/>
<path d="M0 0 C3.03726958 1.36610268 5.20915026 2.93073807 7.609375 5.23046875 C8.28226563 5.86919922 8.95515625 6.50792969 9.6484375 7.16601562 C10.34195313 7.83310547 11.03546875 8.50019531 11.75 9.1875 C19.28655319 16.38734407 27.07601414 23.23159541 35 30 C33.83238575 33.50284274 32.90243978 34.08614879 29.984375 36.22265625 C29.15156006 36.83874756 28.31874512 37.45483887 27.46069336 38.08959961 C26.56616455 38.74065674 25.67163574 39.39171387 24.75 40.0625 C22.91227335 41.41861104 21.07503387 42.77538251 19.23828125 44.1328125 C18.33932129 44.79442383 17.44036133 45.45603516 16.51416016 46.13769531 C13.28757382 48.52771285 10.10797601 50.97388097 6.9375 53.4375 C5.93332031 54.20835937 4.92914063 54.97921875 3.89453125 55.7734375 C1.9250434 57.28842815 -0.03561349 58.81495336 -1.98828125 60.3515625 C-11.12040947 67.34585827 -11.12040947 67.34585827 -17 67 C-21.79772263 64.9998414 -25.34187479 62.17759697 -29.0625 58.625 C-29.56587891 58.15578125 -30.06925781 57.6865625 -30.58789062 57.203125 C-31.58607985 56.26821038 -32.57762137 55.32614183 -33.56201172 54.37670898 C-34.95751149 53.04067788 -36.3904879 51.74413749 -37.82421875 50.44921875 C-40.19865774 47.7763763 -40.7272757 46.70408537 -40.75 43.1875 C-40.35289429 36.89845379 -37.48064234 34.14077938 -33 30 C-31.82464989 28.87981938 -30.65025312 27.75863802 -29.4765625 26.63671875 C-23.73581607 21.18882305 -17.91621396 15.82811467 -11.91796875 10.6640625 C-7.89139656 7.17053958 -3.95500191 3.57408984 0 0 Z " fill="hsl({{HUE}},100%,28%)" transform="translate(40,128)"/>
</svg>
